<svg height="24" viewBox="0 0 24 24" width="24" xmlns="http://www.w3.org/2000/svg"><path d="m23.904057 7.0546875c-.0561038-1.27496339-.2618787-2.15148928-.556652-2.91101072-.3040936-.80621339-.7719299-1.52801517-1.3848684-2.12805178-.598867-.609375-1.3240132-1.08288572-2.1193348-1.3828125-.762427-.29534911-1.6326755-.50152589-2.9051536-.55773928-1.2819809-.06097411-1.6889619-.07507322-4.9404239-.07507322-3.25146201 0-3.65844301.01409911-4.93567253.0703125-1.27247809.05621339-2.14729535.26257322-2.90515355.55773928-.80482451.3046875-1.52521927.7734375-2.12408622 1.38757322-.60818713.60003661-1.08059214 1.32659911-1.38011696 2.12347411-.29477338.76409911-.50054826 1.63586428-.55665207 2.91082767-.06085525 1.28448483-.07492688 1.69226072-.07492688 4.95007322s.01407163 3.6655884.07017544 4.9453125c.05610382 1.2749634.26206138 2.1514893.55683476 2.9110107.30409357.8062134.77649858 1.5280152 1.38468571 2.1280518.59886695.609375 1.32401315 1.0828857 2.11933478 1.3828125.76260964.2953491 1.63267547.5015259 2.90533624.5577393 1.27704683.0563964 1.68421052.0703125 4.93567248.0703125 3.251462 0 3.658443-.0139161 4.9356725-.0703125 1.2724781-.0562134 2.1472954-.2623902 2.9051536-.5577393 1.6094663-.6234741 2.8819444-1.8984375 3.5042032-3.5108643.2945907-.7640991.5005482-1.6360473.556652-2.9110107.0561039-1.2797241.0701755-1.6875.0701755-4.9453125s-.0047515-3.66558839-.0608553-4.9453125zm-2.1566155 9.796875c-.0515351 1.171875-.2479898 1.8046875-.4117324 2.2265625-.4024123 1.0453491-1.2304459 1.875-2.2737573 2.2781982-.4210527.1640625-1.0572004.3609009-2.2222223.4123536-1.2631579.0563964-1.6419956.0703125-4.8373538.0703125-3.19535816 0-3.57894735-.0139161-4.8375365-.0703125-1.16959064-.0514527-1.80116959-.2482911-2.22222222-.4123536-.51918863-.1922607-.99177633-.4969482-1.37536552-.8953857-.39766082-.3890991-.70175438-.8578491-.89364033-1.3780518-.16374269-.421875-.36019738-1.0594482-.41154975-2.2265625-.0562865-1.265625-.07017544-1.6453857-.07017544-4.8469848 0-3.20159912.01388894-3.58593751.07017544-4.84680179.05135237-1.171875.24780706-1.8046875.41154975-2.2265625.19188595-.52038572.49597951-.99371339.89839177-1.37823483.38815794-.3984375.8559942-.703125 1.37536552-.89520267.42105263-.1640625 1.05738302-.36090089 2.22222222-.41253661 1.2631579-.05621339 1.64217834-.0703125 4.83735386-.0703125 3.2001096 0 3.5789473.01409911 4.8375365.0703125 1.1695906.05163572 1.8011696.24847411 2.2222222.41253661.5191886.19207767.9917763.49676517 1.3753655.89520267.3976608.38909911.7017544.85784911.8936404 1.37823483.1637426.421875.3601973 1.05926517.4117324 2.2265625.0561038 1.265625.0701754 1.64520267.0701754 4.84680179 0 3.2015991-.0140716 3.5765991-.0701754 4.8422241z"/><path d="m11.9976243 5.8359375c-3.39638163 0-6.1520468 2.76086428-6.1520468 6.1640625 0 3.4031982 2.75566517 6.1640625 6.1520468 6.1640625 3.3965643 0 6.1520468-2.7608643 6.1520468-6.1640625 0-3.40319822-2.7554825-6.1640625-6.1520468-6.1640625zm0 10.1625366c-2.20339918 0-3.99067983-1.7905884-3.99067983-3.9984741 0-2.20788572 1.78728065-3.99847411 3.99067983-3.99847411 2.2035818 0 3.9906798 1.79058839 3.9906798 3.99847411 0 2.2078857-1.787098 3.9984741-3.9906798 3.9984741z"/><path d="m19.8293128 5.59222411c0 .79467773-.643092 1.43902589-1.4364034 1.43902589-.7931287 0-1.4362208-.64434816-1.4362208-1.43902589 0-.79486083.6430921-1.43902589 1.4362208-1.43902589.7933114 0 1.4364034.64416506 1.4364034 1.43902589z"/></svg>